<svg width="47" height="47" viewBox="0 0 47 47" fill="none" xmlns="http://www.w3.org/2000/svg">
<g id="Group 41/Variant3">
<path id="Vector 58" d="M7.875 33.2917H17.625C20.332 33.2917 21.6855 33.2917 22.5508 34.1021C22.5986 34.1469 22.6448 34.1932 22.6896 34.2409C23.5 35.1062 23.5 36.4597 23.5 39.1667V13.8334C23.5 11.0049 23.5 9.59073 22.6213 8.71205C21.7426 7.83337 20.3284 7.83337 17.5 7.83337H7.875C6.93219 7.83337 6.46079 7.83337 6.16789 8.12627C5.875 8.41916 5.875 8.89057 5.875 9.83338V31.2917C5.875 32.2345 5.875 32.7059 6.16789 32.9988C6.46079 33.2917 6.93219 33.2917 7.875 33.2917Z" stroke="#0C40C4" stroke-width="2"/>
<path id="Vector 59" d="M39.125 33.2917H29.375C26.668 33.2917 25.3145 33.2917 24.4492 34.1021C24.4014 34.1469 24.3552 34.1932 24.3104 34.2409C23.5 35.1062 23.5 36.4597 23.5 39.1667V13.8334C23.5 11.0049 23.5 9.59073 24.3787 8.71205C25.2574 7.83337 26.6716 7.83337 29.5 7.83337H39.125C40.0678 7.83337 40.5392 7.83337 40.8321 8.12627C41.125 8.41916 41.125 8.89057 41.125 9.83338V31.2917C41.125 32.2345 41.125 32.7059 40.8321 32.9988C40.5392 33.2917 40.0678 33.2917 39.125 33.2917Z" stroke="#0C40C4" stroke-width="2"/>
<rect id="Rectangle 37" x="8" y="13" width="13" height="2" fill="#0C40C4"/>
<rect id="Rectangle 38" x="8" y="19" width="13" height="2" fill="#0C40C4"/>
<rect id="Rectangle 39" x="8" y="25" width="13" height="2" fill="#0C40C4"/>
<rect id="Rectangle 40" x="26" y="25" width="13" height="2" fill="#0C40C4"/>
<rect id="Rectangle 41" x="26" y="19" width="13" height="2" fill="#0C40C4"/>
<rect id="Rectangle 42" x="26" y="13" width="13" height="2" fill="#0C40C4"/>
</g>
</svg>
