<svg width="33" height="30" viewBox="0 0 33 30" fill="none" xmlns="http://www.w3.org/2000/svg">
<path id="Vector" d="M18.5866 0.00013761C17.2948 0.00488146 16.011 0.131959 14.7793 0.341263C8.53573 1.40216 5.01645 4.18428 3.11747 8.09127C5.36467 7.91632 7.58106 7.73016 9.7382 7.74353C11.4742 7.75431 13.1719 7.89426 14.8165 8.27326C15.9071 8.52483 16.5912 9.46979 16.8039 10.5543C17.0166 11.6387 16.8657 12.9204 16.44 14.2597L16.4193 14.3247L16.3856 14.3841C15.8268 15.3644 14.6389 16.1449 13.1248 16.9712C11.6107 17.7975 9.76318 18.6023 7.92201 19.302C6.08084 20.0017 4.2496 20.5943 2.76925 20.9865C2.24702 21.1249 1.77217 21.2367 1.3485 21.3213C1.51228 23.5588 1.82091 25.8768 2.21297 28.22C12.3002 25.4707 21.9025 22.4779 31.2621 19.3609C33.1292 16.1655 33.4166 13.1473 32.4836 10.2517C30.8715 5.24877 28.0993 2.5575 24.909 1.18322C22.9152 0.3243 20.7398 -0.0077688 18.5868 0.00013761H18.5866ZM6.76482 9.13405C6.11259 9.17071 5.44991 9.21714 4.78277 9.26602L1.66253 19.9285C1.90615 19.8717 2.16186 19.809 2.43672 19.7362C2.74157 19.6548 3.04539 19.5696 3.34813 19.4807C4.06962 17.2475 6.46534 10.035 6.76482 9.13405ZM3.40284 9.36851C2.62044 9.42788 1.83171 9.4874 1.03376 9.53886C1.01072 9.57085 0.982355 9.60693 0.938873 9.7018C0.825127 9.94978 0.695903 10.3787 0.585253 10.9039C0.36388 11.9541 0.19866 13.3999 0.102552 14.8482C0.00658789 16.2965 -0.0219924 17.7548 0.0166669 18.8433C0.0359605 19.3875 0.0735397 19.8427 0.120478 20.1342C0.123933 20.1562 0.126093 20.1566 0.129837 20.1766C0.162953 20.1759 0.204204 20.1734 0.241135 20.172L3.40284 9.36851ZM13.5187 9.40682C12.396 9.40682 11.4555 10.3112 11.4555 11.4303C11.4555 12.5494 12.396 13.454 13.5187 13.454C14.6415 13.454 15.582 12.5495 15.582 11.4303C15.582 10.3112 14.6415 9.40682 13.5187 9.40682ZM13.5187 10.7006C13.9593 10.7006 14.2862 11.0289 14.2862 11.4303C14.2862 11.8318 13.9593 12.1602 13.5187 12.1602C13.0782 12.1602 12.7513 11.8317 12.7513 11.4303C12.7513 11.0289 13.0782 10.7006 13.5187 10.7006ZM30.0904 21.113C21.1774 24.059 12.0274 26.8893 2.436 29.5006C2.46573 29.6671 2.49431 29.8334 2.52469 30C13.1511 28.0845 20.9525 25.043 29.2593 22.1537C29.5467 21.8151 29.8239 21.468 30.0905 21.1129L30.0904 21.113Z" fill="#0C40C4"/>
</svg>
