<svg width="46" height="46" viewBox="0 0 46 46" fill="none" xmlns="http://www.w3.org/2000/svg">
<g id="More vertical">
<g id="Icon">
<path d="M23.0002 24.9167C24.0587 24.9167 24.9168 24.0585 24.9168 23C24.9168 21.9414 24.0587 21.0833 23.0002 21.0833C21.9416 21.0833 21.0835 21.9414 21.0835 23C21.0835 24.0585 21.9416 24.9167 23.0002 24.9167Z" stroke="#F5F5F5" stroke-width="4" stroke-linecap="round" stroke-linejoin="round"/>
<path d="M23.0002 11.5C24.0587 11.5 24.9168 10.6419 24.9168 9.58332C24.9168 8.52478 24.0587 7.66666 23.0002 7.66666C21.9416 7.66666 21.0835 8.52478 21.0835 9.58332C21.0835 10.6419 21.9416 11.5 23.0002 11.5Z" stroke="#F5F5F5" stroke-width="4" stroke-linecap="round" stroke-linejoin="round"/>
<path d="M23.0002 38.3333C24.0587 38.3333 24.9168 37.4752 24.9168 36.4167C24.9168 35.3581 24.0587 34.5 23.0002 34.5C21.9416 34.5 21.0835 35.3581 21.0835 36.4167C21.0835 37.4752 21.9416 38.3333 23.0002 38.3333Z" stroke="#F5F5F5" stroke-width="4" stroke-linecap="round" stroke-linejoin="round"/>
</g>
</g>
</svg>
